<svg width="29" height="28" viewBox="0 0 29 28" fill="none" xmlns="http://www.w3.org/2000/svg">
<g clip-path="url(#clip0_813_6460)">
<path d="M22.7582 11.6149C21.975 7.64106 18.4849 4.65784 14.2923 4.65784C10.9635 4.65784 8.07242 6.54683 6.63263 9.31121C3.16564 9.6798 0.470367 12.617 0.470367 16.1761C0.470367 19.9886 3.56878 23.087 7.38132 23.087H22.3551C25.5341 23.087 28.1142 20.507 28.1142 17.3279C28.1142 14.2871 25.7529 11.8222 22.7582 11.6149ZM22.3551 20.7834H7.38132C4.83579 20.7834 2.77402 18.7216 2.77402 16.1761C2.77402 13.8148 4.53631 11.8452 6.87452 11.6033L8.10697 11.4766L8.68288 10.3824C9.77712 8.27457 11.9195 6.96149 14.2923 6.96149C17.3101 6.96149 19.9132 9.10388 20.5006 12.0641L20.8462 13.7918L22.6085 13.9185C24.4053 14.0337 25.8105 15.5426 25.8105 17.3279C25.8105 19.2284 24.2556 20.7834 22.3551 20.7834ZM9.68497 15.0243H12.6221V18.4797H15.9624V15.0243H18.8996L14.2923 10.417L9.68497 15.0243Z" fill="#4E3A92"/>
</g>
<defs>
<clipPath id="clip0_813_6460">
<rect width="27.6438" height="27.6438" fill="white" transform="translate(0.470367 0.0505371)"/>
</clipPath>
</defs>
</svg>
