<svg width="18" height="20" viewBox="0 0 18 20" fill="none" xmlns="http://www.w3.org/2000/svg">
<path d="M1 4.5H17M7 14.5V8.5M11 14.5V8.5M13 18.5H5C3.89543 18.5 3 17.6046 3 16.5V5.5C3 4.94772 3.44771 4.5 4 4.5H14C14.5523 4.5 15 4.94772 15 5.5V16.5C15 17.6046 14.1046 18.5 13 18.5ZM7 4.5H11C11.5523 4.5 12 4.05229 12 3.5V2.5C12 1.94772 11.5523 1.5 11 1.5H7C6.44771 1.5 6 1.94772 6 2.5V3.5C6 4.05229 6.44771 4.5 7 4.5Z" stroke="#644BBB" stroke-width="1.8" stroke-linecap="round" stroke-linejoin="round"/>
</svg>
