<svg width="16" height="18" viewBox="0 0 16 18" fill="none" xmlns="http://www.w3.org/2000/svg">
<path d="M0.799805 4.05001H15.1998M6.1998 13.05V7.65001M9.7998 13.05V7.65001M11.5998 16.65H4.3998C3.40569 16.65 2.5998 15.8441 2.5998 14.85V4.95001C2.5998 4.45295 3.00275 4.05001 3.4998 4.05001H12.4998C12.9969 4.05001 13.3998 4.45295 13.3998 4.95001V14.85C13.3998 15.8441 12.5939 16.65 11.5998 16.65ZM6.1998 4.05001H9.7998C10.2969 4.05001 10.6998 3.64706 10.6998 3.15001V2.25001C10.6998 1.75295 10.2969 1.35001 9.7998 1.35001H6.1998C5.70275 1.35001 5.2998 1.75295 5.2998 2.25001V3.15001C5.2998 3.64706 5.70275 4.05001 6.1998 4.05001Z" stroke="#FF3B30" stroke-width="1.5" stroke-linecap="round" stroke-linejoin="round"/>
</svg>
