<svg width="16" height="17" viewBox="0 0 16 17" fill="none" xmlns="http://www.w3.org/2000/svg">
<path d="M8.00001 0.666626C7.54001 0.666626 7.16667 1.03971 7.16667 1.49996V10.3016L5.25506 8.41041C4.92959 8.08842 4.40515 8.08982 4.08141 8.41356L-nan -nanL4.08141 8.41356C3.75722 8.73774 3.75633 9.26308 4.07941 9.58837L7.40084 12.9325C7.72668 13.2575 8.27334 13.2575 8.59917 12.9325L11.9206 9.58837C12.2437 9.26308 12.2428 8.73774 11.9186 8.41356L-nan -nanL11.9186 8.41356C11.5949 8.08982 11.0704 8.08842 10.745 8.41041L8.83334 10.3016V1.49996C8.83334 1.03971 8.46001 0.666543 8.00001 0.666626ZM1.33333 10.6666C0.873334 10.6666 0.5 11.04 0.5 11.5V13.1666C0.5 15.0075 1.9925 16.5 3.83334 16.5H12.1667C14.0075 16.5 15.5 15.0075 15.5 13.1666V11.5C15.5 11.04 15.1267 10.6666 14.6667 10.6666C14.2067 10.6666 13.8333 11.04 13.8333 11.5V13.1666C13.8333 14.0875 13.0875 14.8333 12.1667 14.8333H3.83334C2.9125 14.8333 2.16667 14.0875 2.16667 13.1666V11.5C2.16667 11.04 1.79333 10.6666 1.33333 10.6666Z" fill="#644BBB" stroke="#644BBB" stroke-width="0.5"/>
</svg>
