<svg width="20" height="20" viewBox="0 0 20 20" fill="none" xmlns="http://www.w3.org/2000/svg">
<path d="M3.625 11.6255H0.625C0.525544 11.6255 0.430161 11.665 0.359835 11.7353C0.289509 11.8056 0.25 11.901 0.25 12.0005V18.7505C0.25 18.8499 0.289509 18.9453 0.359835 19.0156C0.430161 19.086 0.525544 19.1255 0.625 19.1255H3.625C3.72446 19.1255 3.81984 19.086 3.89016 19.0156C3.96049 18.9453 4 18.8499 4 18.7505V12.0005C4 11.901 3.96049 11.8056 3.89016 11.7353C3.81984 11.665 3.72446 11.6255 3.625 11.6255ZM3.25 18.3755H1V12.3755H3.25V18.3755ZM8.875 9.37547H5.875C5.77554 9.37547 5.68016 9.41498 5.60983 9.48531C5.53951 9.55563 5.5 9.65102 5.5 9.75047V18.7505C5.5 18.8499 5.53951 18.9453 5.60983 19.0156C5.68016 19.086 5.77554 19.1255 5.875 19.1255H8.875C8.97446 19.1255 9.06984 19.086 9.14016 19.0156C9.21049 18.9453 9.25 18.8499 9.25 18.7505V9.75047C9.25 9.65102 9.21049 9.55563 9.14016 9.48531C9.06984 9.41498 8.97446 9.37547 8.875 9.37547ZM8.5 18.3755H6.25V10.1255H8.5V18.3755ZM14.125 7.12547H11.125C11.0255 7.12547 10.9302 7.16498 10.8598 7.23531C10.7895 7.30563 10.75 7.40102 10.75 7.50047V18.7505C10.75 18.8499 10.7895 18.9453 10.8598 19.0156C10.9302 19.086 11.0255 19.1255 11.125 19.1255H14.125C14.2245 19.1255 14.3198 19.086 14.3902 19.0156C14.4605 18.9453 14.5 18.8499 14.5 18.7505V7.50047C14.5 7.40102 14.4605 7.30563 14.3902 7.23531C14.3198 7.16498 14.2245 7.12547 14.125 7.12547ZM13.75 18.3755H11.5V7.87547H13.75V18.3755ZM19.375 4.87547H16.375C16.2755 4.87547 16.1802 4.91498 16.1098 4.98531C16.0395 5.05563 16 5.15102 16 5.25047V18.7505C16 18.8499 16.0395 18.9453 16.1098 19.0156C16.1802 19.086 16.2755 19.1255 16.375 19.1255H19.375C19.4745 19.1255 19.5698 19.086 19.6402 19.0156C19.7105 18.9453 19.75 18.8499 19.75 18.7505V5.25047C19.75 5.15102 19.7105 5.05563 19.6402 4.98531C19.5698 4.91498 19.4745 4.87547 19.375 4.87547ZM19 18.3755H16.75V5.62547H19V18.3755ZM16.06 2.59172C16.1288 2.65423 16.2183 2.68898 16.3112 2.68922C16.346 2.6947 16.3815 2.6947 16.4162 2.68922C16.4772 2.67123 16.5326 2.63805 16.5772 2.59279C16.6218 2.54753 16.6542 2.49167 16.6712 2.43047L17.125 0.802973C17.1443 0.735925 17.1445 0.664821 17.1256 0.597657C17.1067 0.530493 17.0695 0.469932 17.018 0.422786C16.9666 0.37564 16.903 0.343777 16.8345 0.330781C16.7659 0.317785 16.6951 0.324172 16.63 0.349223L15.0662 0.956723C15.0061 0.979654 14.9529 1.01767 14.9117 1.06712C14.8705 1.11656 14.8428 1.17578 14.8311 1.23906C14.8194 1.30234 14.8242 1.36756 14.8451 1.42845C14.8659 1.48934 14.902 1.54384 14.95 1.58672L15.2012 1.81547C10.6037 7.41047 1.82125 7.51922 1.75 7.52297C1.65054 7.52297 1.55516 7.56248 1.48483 7.63281C1.41451 7.70314 1.375 7.79852 1.375 7.89797C1.375 7.99743 1.41451 8.09281 1.48483 8.16314C1.55516 8.23347 1.65054 8.27297 1.75 8.27297C2.125 8.27297 10.9487 8.16422 15.7712 2.31797L16.06 2.59172ZM16.1987 1.32047L16.1125 1.63172L15.9025 1.43672L16.1987 1.32047Z" fill="white" stroke="white" stroke-width="0.5"/>
</svg>
