<svg width="20" height="20" viewBox="0 0 20 20" fill="none" xmlns="http://www.w3.org/2000/svg">
<path fill-rule="evenodd" clip-rule="evenodd" d="M5.67948 12.1673C5.43811 12.1673 5.19674 12.0706 5.00364 11.8771L3.09681 9.99097C1.18998 8.08071 1.18998 4.98556 3.09681 3.09946C5.00364 1.18918 8.09319 1.18918 9.9759 3.09946L11.8827 5.00974C12.2689 5.39663 12.2689 6.00115 11.8827 6.38805C11.4965 6.77494 10.8931 6.77494 10.5069 6.38805L8.60007 4.47776C8.04491 3.92161 7.29668 3.60726 6.52427 3.60726C5.72775 3.60726 5.00364 3.92161 4.44849 4.47776C3.2899 5.63845 3.2899 7.50034 4.44849 8.63685L6.35531 10.5472C6.74151 10.934 6.74151 11.5386 6.35531 11.9254C6.18636 12.0706 5.92085 12.1673 5.67948 12.1673ZM13.4516 18.3334C12.1965 18.3334 10.9655 17.8498 10 16.9067L8.09319 14.9965C7.707 14.6096 7.707 14.005 8.09319 13.6182C8.47939 13.2313 9.08283 13.2313 9.46897 13.6182L11.3758 15.5285C12.5344 16.6891 14.393 16.6891 15.5274 15.5285C16.686 14.3678 16.686 12.5059 15.5274 11.3694L13.6206 9.45904C13.2344 9.07217 13.2344 8.46763 13.6206 8.08076C14.0068 7.69388 14.6102 7.69388 14.9964 8.08076L16.9032 9.99102C18.8101 11.9013 18.8101 14.9965 16.9032 16.8826C15.9377 17.8498 14.7067 18.3334 13.4516 18.3334ZM10.869 12.2156C11.062 12.409 11.3034 12.5058 11.5448 12.5058C11.8103 12.5058 12.0517 12.409 12.2448 12.2398C12.631 11.8529 12.631 11.2484 12.2448 10.8615L9.13106 7.74217C8.74491 7.35524 8.14147 7.35524 7.75528 7.74217C7.36908 8.12904 7.36908 8.73357 7.75528 9.12045L10.869 12.2156Z" fill="#2E2257"/>
</svg>
