<svg width="74" height="80" viewBox="0 0 74 80" fill="none" xmlns="http://www.w3.org/2000/svg">
<path d="M55.1164 34.6313V19.4915C55.1164 19.0582 54.9162 18.6578 54.633 18.341L37.6591 0.516967C37.3424 0.183716 36.8919 0 36.4421 0H9.53051C4.56225 0 0.59375 4.05151 0.59375 9.02037V59.9084C0.59375 64.8772 4.56225 68.8622 9.53051 68.8622H30.7731C34.7911 75.5315 42.0945 79.9999 50.4142 79.9999C63.0528 79.9999 73.3738 69.7289 73.3738 57.0739C73.3909 46.0192 65.4539 36.7822 55.1164 34.6313ZM38.1096 5.85265L49.4975 17.8406H42.111C39.9101 17.8406 38.1096 16.0235 38.1096 13.8226V5.85265ZM9.53051 65.5273C6.41283 65.5273 3.92871 63.026 3.92871 59.9084V9.02037C3.92871 5.88561 6.41283 3.33496 9.53051 3.33496H34.7746V13.8226C34.7746 17.8741 38.0595 21.1755 42.111 21.1755H51.7814V34.1973C51.2815 34.1809 50.8812 34.1308 50.4478 34.1308C44.6287 34.1308 39.2766 36.3653 35.2415 39.8669H14.066C13.1487 39.8669 12.3985 40.617 12.3985 41.5338C12.3985 42.4511 13.1487 43.2012 14.066 43.2012H32.1403C30.9563 44.8687 29.9724 46.5362 29.2058 48.3703H14.066C13.1487 48.3703 12.3985 49.1204 12.3985 50.0378C12.3985 50.9545 13.1487 51.7052 14.066 51.7052H28.1218C27.7049 53.3727 27.4882 55.2233 27.4882 57.0739C27.4882 60.075 28.0717 63.0431 29.1222 65.5443H9.53051V65.5273ZM50.4313 76.682C39.6269 76.682 30.8397 67.8948 30.8397 57.0904C30.8397 46.2859 39.6098 37.4987 50.4313 37.4987C61.2522 37.4987 70.0224 46.2859 70.0224 57.0904C70.0224 67.8948 61.2358 76.682 50.4313 76.682Z" fill="#2E2257"/>
<path d="M14.0659 34.848H30.9562C31.8735 34.848 32.6236 34.0972 32.6236 33.1805C32.6236 32.2631 31.8735 31.513 30.9562 31.513H14.0659C13.1486 31.513 12.3984 32.2631 12.3984 33.1805C12.3984 34.0972 13.1486 34.848 14.0659 34.848Z" fill="#2E2257"/>
<path d="M58.9672 56.74L52.1148 64.1265V45.9191C52.1148 45.0018 51.3641 44.2516 50.4474 44.2516C49.53 44.2516 48.7799 45.0018 48.7799 45.9191V64.1265L41.8768 56.74C41.2433 56.0735 40.1764 56.0235 39.5093 56.657C38.8422 57.2906 38.7921 58.341 39.4263 59.0081L49.1803 69.4958C49.497 69.829 49.9304 70.0292 50.3973 70.0292C50.8642 70.0292 51.2976 69.829 51.6144 69.4958L61.3855 59.0081C62.019 58.341 61.9854 57.2741 61.3183 56.657C60.6347 56.0235 59.6014 56.0735 58.9672 56.74Z" fill="#2E2257"/>
</svg>
