<svg width="18" height="18" viewBox="0 0 18 18" fill="none" xmlns="http://www.w3.org/2000/svg">
<path fill-rule="evenodd" clip-rule="evenodd" d="M5.27809 15.7121C4.30195 15.4967 3.54772 15.0818 2.94706 14.2592C2.83088 14.1001 2.81032 13.9895 2.81269 13.9178C2.81516 13.8429 2.84519 13.7416 2.94846 13.6087C3.17044 13.3231 3.63878 13.0111 4.32793 12.7237C5.68366 12.1582 7.58454 11.8125 8.99977 11.8125C10.415 11.8125 12.3161 12.1582 13.672 12.7237C14.3612 13.0112 14.8296 13.3231 15.0516 13.6087C15.1548 13.7415 15.1849 13.8429 15.1873 13.9177C15.1897 13.9894 15.1691 14.1 15.0529 14.2591C14.4521 15.0817 13.6977 15.4967 12.7215 15.712C11.7121 15.9347 10.5018 15.9375 8.99975 15.9375C7.49765 15.9375 6.28743 15.9347 5.27809 15.7121ZM8.9529 17.0625H9.04617C10.4918 17.0625 11.8217 17.0626 12.9638 16.8106C14.1513 16.5487 15.1678 16.0091 15.9614 14.9226C16.1938 14.6045 16.324 14.2527 16.3117 13.8807C16.2996 13.5118 16.1495 13.1881 15.9398 12.9183C15.5358 12.3985 14.8462 11.9945 14.105 11.6854C12.6 11.0577 10.5502 10.6875 8.99977 10.6875C7.44937 10.6875 5.39972 11.0577 3.89485 11.6854C3.1537 11.9945 2.46422 12.3985 2.06021 12.9183C1.85049 13.1881 1.70048 13.5118 1.6883 13.8807C1.67601 14.2527 1.80617 14.6045 2.0385 14.9226C2.8319 16.0091 3.84833 16.5487 5.03575 16.8107C6.17766 17.0626 7.50749 17.0625 8.9529 17.0625Z" fill="white" stroke="white" stroke-width="0.5"/>
<path fill-rule="evenodd" clip-rule="evenodd" d="M9 2.0625C7.23959 2.0625 5.8125 3.48959 5.8125 5.25C5.8125 7.01041 7.23959 8.4375 9 8.4375C10.7604 8.4375 12.1875 7.01041 12.1875 5.25C12.1875 3.48959 10.7604 2.0625 9 2.0625ZM4.6875 5.25C4.6875 2.86827 6.61827 0.9375 9 0.9375C11.3817 0.9375 13.3125 2.86827 13.3125 5.25C13.3125 7.63173 11.3817 9.5625 9 9.5625C6.61827 9.5625 4.6875 7.63173 4.6875 5.25Z" fill="white" stroke="white" stroke-width="0.5"/>
</svg>
